<?xml version="1.0" encoding="utf-8"?>
<!-- Generator: Adobe Illustrator 21.0.2, SVG Export Plug-In . SVG Version: 6.00 Build 0) -->
<svg version="1.1" id="Layer_1" xmlns="http://www.w3.org/2000/svg" xmlns:xlink="http://www.w3.org/1999/xlink" x="0px" y="0px" viewBox="0 0 1044 756" style="enable-background:new 0 0 1044 756;" xml:space="preserve">
	<style type="text/css">
		.st0{fill:#0101A9;}
		.st1{fill:none;}
		.st2{fill:#FFFF00;}
		.st3{fill:#FFFFFF;}
	</style>
	<g>
		<ellipse class="st0" cx="522" cy="378" rx="522" ry="378" />
	</g>
	<g>
		<rect x="84" y="142" class="st1" width="874" height="288" />
		<path class="st2" d="M148.2,264.1V142h245v122.1h-61.4v153.6H209.6V264.1H148.2z" />
		<path class="st2" d="M615.7,156.1L585.3,243c-19.9-26.9-42.7-40.3-68.5-40.3c-14.3,0-21.5,5.4-21.5,16.3c0,3.4,2.3,6.8,6.8,10.3
		c4.5,3.5,16.3,9,35.5,16.4c21.1,8.3,37.3,15.9,48.7,22.7c11.4,6.8,19.9,15.5,25.6,26.1c5.7,10.6,8.5,22.9,8.5,37
		c0,29.5-11.2,52-33.6,67.5c-22.4,15.5-55.3,23.2-98.8,23.2c-48.8,0-90.8-6.9-126.1-20.8l29.8-92.1c8.7,13.5,19.4,24.2,32.2,32.2
		s25.1,11.9,36.9,11.9c5.8,0,10.6-1.5,14.5-4.5c3.9-3,5.9-6.7,5.9-11c0-4.1-1.9-8-5.7-11.7c-3.8-3.7-13.8-8.9-30.1-15.5
		c-14.7-5.9-26.9-11.7-36.5-17.3c-9.6-5.6-18-13.6-25.1-23.9c-7.1-10.4-10.7-23.4-10.7-39.2c0-30.6,11.1-53.7,33.4-69.2
		c22.3-15.5,55.2-23.3,98.6-23.3C545,137.7,581.8,143.8,615.7,156.1z" />
		<path class="st2" d="M890.2,174.5l-58.9,82.9c-24.6-11.8-47.3-17.7-68.1-17.7c-13.9,0-25,3.6-33.3,10.7
		c-8.4,7.2-12.6,16.7-12.6,28.5c0,22.4,14.7,33.6,44.1,33.6v-43.2h122.1v148.7c-49.4,2.8-82.8,4.2-100.3,4.2
		c-67.5,0-114.3-14.3-140.6-43c-26.3-28.7-39.4-62.1-39.4-100.3c0-26.3,6.1-50.3,18.3-72.3c12.2-21.9,29.9-38.9,52.9-50.9
		c23.1-12,50.4-18.1,81.9-18.1c22.2,0,45.1,3.2,68.8,9.7C849.1,153.8,870.7,162.8,890.2,174.5z" />
	</g>
	<g>
		<rect x="73" y="467" class="st1" width="897" height="214" />
		<path class="st3" d="M158.2,597.4V467h57.7v130.4H158.2z" />
		<path class="st3" d="M241.7,467h85.2c14.8,0,26.3,3.7,34.8,11.2c8.4,7.4,12.6,16.7,12.6,27.9c0,12.3-5,21.9-14.9,28.9
		c14.1,16.1,22.5,36.9,25.2,62.5h-59.9c-1.1-16.5-3.5-28.6-7.4-36.5c-3.8-7.9-9.8-11.8-18-11.8v48.3h-57.7V467z M299.4,493.8V519
		h1.6c10.4,0,15.6-4.1,15.6-12.2c0-3.4-1.1-6.4-3.2-9c-2.1-2.6-5.6-3.9-10.5-3.9H299.4z" />
		<path class="st3" d="M398.2,597.4V467H456v97.7h50.6v32.7H398.2z" />
		<path class="st3" d="M521,597.4V467h57.7v130.4H521z" />
		<path class="st3" d="M725.9,478.7l-24.2,46.1c-7.1-2.4-14.9-3.7-23.4-3.7c-12.2,0-18.4,3.3-18.4,10c0,3.2,1.7,5.7,5.1,7.5
		c3.4,1.8,8.3,2.7,14.6,2.7c8.5,0,15.9-1.5,22-4.6l24.2,49.4c-6.8,4.1-15.1,7.4-24.8,9.8c-9.7,2.4-18.9,3.7-27.8,3.7
		c-22.2,0-39.8-6.4-52.9-19.2c-13.1-12.8-19.7-28.5-19.7-47.2c0-19.8,6.8-36.1,20.5-48.9c13.7-12.8,31-19.3,52.1-19.3
		c9.1,0,18.5,1.2,28.2,3.7C711.3,471.1,719.4,474.5,725.9,478.7z" />
		<path class="st3" d="M798.3,597.4h-57.8V467h57.8v47.8h29.4V467h57.8v130.4h-57.8v-48.4h-29.4V597.4z" />
	</g>
</svg>
